/* XPM */
static char *player[] = {
/* columns rows colors chars-per-pixel */
"64 64 131 2 ",
"   c gray20",
".  c #363433",
"X  c #393633",
"o  c #3D3734",
"O  c #493633",
"+  c #403934",
"@  c #433A34",
"#  c #473C35",
"$  c #4E3F36",
"%  c #544236",
"&  c #584437",
"*  c #5B4537",
"=  c #5E4737",
"-  c #654A38",
";  c #684B38",
":  c #694B39",
">  c #684C38",
",  c #694C39",
"<  c #64523B",
"1  c #65543C",
"2  c #60583E",
"3  c #5C5E40",
"4  c #725540",
"5  c #765A44",
"6  c #7B5E48",
"7  c #586543",
"8  c #546B45",
"9  c #5A6C47",
"0  c #4C784A",
"q  c #487E4D",
"w  c #507148",
"e  c #56744A",
"r  c #7D6149",
"t  c #803B34",
"y  c #9B4737",
"u  c #AD4536",
"i  c #C64335",
"p  c #CD4335",
"a  c #CE4335",
"s  c #D14436",
"d  c #D34536",
"f  c #D64637",
"g  c #DA4738",
"h  c #DD4839",
"j  c #DE4939",
"k  c #DB543F",
"l  c #E34A3B",
"z  c #E74C3C",
"x  c #85674F",
"c  c #8B6F55",
"v  c #8E7157",
"b  c #977A5E",
"n  c #CF5C42",
"m  c #EA5E4A",
"M  c #C46445",
"N  c #EB6751",
"B  c #ED7159",
"V  c #EE7A60",
"C  c #3C9155",
"Z  c #389757",
"A  c #2CAA5F",
"S  c #30A45C",
"D  c #28B162",
"F  c #29B664",
"G  c #29B765",
"H  c #2ABB67",
"J  c #2BBE69",
"K  c #35B56B",
"L  c #35BC6A",
"P  c #449C5C",
"I  c #5C955C",
"U  c #739C5D",
"Y  c #50B467",
"T  c #42BA75",
"R  c #50BF7F",
"E  c #67A460",
"W  c #77A76B",
"Q  c #31C46D",
"!  c #39C46D",
"~  c #2ECC71",
"^  c #48CE79",
"/  c #8A8C56",
"(  c #A38557",
")  c #A18366",
"_  c #A68B6B",
"`  c #AA8C6D",
"'  c #B49675",
"]  c #B49976",
"[  c #BD9F7C",
"{  c #81AA73",
"}  c #90B173",
"|  c #BBA07C",
" . c #F18C6F",
".. c #F49F7D",
"X. c #62D181",
"o. c #6FD285",
"O. c #78CE9C",
"+. c #C6A884",
"@. c #D0B18B",
"#. c #D0B58D",
"$. c #CFB691",
"%. c #D7B692",
"&. c #D7BD93",
"*. c #D9BB93",
"=. c #F6A885",
"-. c #E1C59A",
";. c #E2C49A",
":. c #E6CA9E",
">. c #EECC9E",
",. c #FAC49B",
"<. c #E8CCA0",
"1. c #ECCDA2",
"2. c #FCCDA2",
"3. c #E4DDA9",
"4. c #F0D2A5",
"5. c #F2D5A7",
"6. c #F5D6A9",
"7. c #F5D7A9",
"8. c #FDD6A9",
"9. c #F1DEAD",
"0. c #FADBAD",
"q. c #FCDDAF",
"w. c #FFE0B1",
"e. c #AEE1C4",
"r. c #BBE6CD",
"t. c #C9EBD7",
"y. c #D6F0E1",
"u. c #E4F5EB",
"i. c #F1FAF5",
"p. c white",
"a. c None",
/* pixels */
"a.a.a.a.a.a.a.a.a.a.a.a.a.a.a.a.a.a.a.a.a.a.a.a.a.a.a.a.a.a.a.a.a.a.a.a.a.a.a.a.a.a.a.a.a.a.a.a.a.a.a.a.a.a.a.a.a.a.a.a.a.a.a.a.",
"a.a.a.a.a.a.a.a.a.a.a.a.a.a.a.a.a.a.a.a.a.a.a.a.a.a.a.a.a.a.a.a.a.a.a.a.a.a.a.a.a.a.a.a.a.a.a.a.a.a.a.a.a.a.a.a.a.a.a.a.a.a.a.a.",
"a.a.a.a.a.a.a.a.a.a.a.a.a.a.a.a.a.a.a.a.a.a.a.a.a.a.a.a.a.a.a.a.a.a.a.a.a.a.a.a.a.a.a.a.a.a.a.a.a.a.a.a.a.a.a.a.a.a.a.a.a.a.a.a.",
"a.a.a.a.a.a.a.a.a.a.a.a.a.a.a.a.a.a.a.a.a.a.a.a.a.a.a.a.a.a.a.a.a.a.a.a.a.a.a.a.a.a.a.a.a.a.a.a.a.a.a.a.a.a.a.a.a.a.a.a.a.a.a.a.",
"a.a.a.a.a.a.a.a.a.a.a.a.a.a.a.a.a.a.a.a.a.a.a.a.a.a.a.a.a.a.a.a.a.a.a.a.a.a.a.a.a.a.a.a.a.a.a.a.a.a.a.a.a.a.a.a.a.a.a.a.a.a.a.a.",
"a.a.a.a.a.a.a.a.a.a.a.a.a.a.a.a.a.a.a.a.a.a.a.a.> , > > > , > > , > , > , > > , ; a.a.a.a.a.a.a.a.a.a.a.a.a.a.a.a.a.a.a.a.a.a.a.",
"a.a.a.a.a.a.a.a.a.a.a.a.a.a.a.a.a.; , , , , , , , , , , , , , , , , , , , , , , - ; > > , , ; a.a.a.a.a.a.a.a.a.a.a.a.a.a.a.a.a.",
"a.a.a.a.a.a.a.a.a.a.a.a.a.a.a.; , , , 2 7 q q q C Z Z Z Z Z Z Z Z Z Z Z Z Z Z Z 0 w P 8 2 , , , ; a.a.a.a.a.a.a.a.a.a.a.a.a.a.a.",
"a.a.a.a.a.a.a.a.a.a.a.a.a.a., , 2 0 C S D D D D D D D D D D D D D D D D D D D D D D D D A Z q 2 , , a.a.a.a.a.a.a.a.a.a.a.a.a.a.",
"a.a.a.a.a.a.a.a.a.a.a.a.a., , 0 A D D D D D D D D D D D D D D D D D D D D D D D D D D D D D D A q , , a.a.a.a.a.a.a.a.a.a.a.a.a.",
"a.a.a.a.a.a.a.a.a.a.a.a.; , w D D D D D D D D D D D D D D D D D D D D D D D D D D D D D D D D D D w , - a.a.a.a.a.a.a.a.a.a.a.a.",
"a.a.a.a.a.a.a.a.a.a.a.a., , S D D D D D D D D D D D D D D D D D D D D D D D D D D D D D D D D D D S , , a.a.a.a.a.a.a.a.a.a.a.a.",
"a.a.a.a.a.a.a.a.a.a.a.a., < D D D D D D D D D D D D D D D D D D D D D D D D D D D D D D D D D D D D , , a.a.a.a.a.a.a.a.a.a.a.a.",
"a.a.a.a.a.a.a.a.a.a.a.a., , D D D D D D D D D D D D D K O.r.t.t.t.t.r.O.D D D D D D D D D D D D D D , , a.a.a.a.a.a.a.a.a.a.a.a.",
"a.a.a.a.a.a.a.a.a.a.a.a., , D D D D D D D D D D D D O.u.p.p.p.p.p.p.p.p.y.R D D D D D D D D D D D D , , a.a.a.a.a.a.a.a.a.a.a.a.",
"a.a.a.a.a.a.a.a.a.a.a.a., , D D D D D D D D D D D R i.p.p.p.p.p.p.p.p.p.p.u.R D D D D D D D D D D D , , a.a.a.a.a.a.a.a.a.a.a.a.",
"a.a.a.a.a.a.a.a.a.a.a.a., , D D D D D D D D D D T i.p.p.p.p.p.p.p.p.p.p.p.p.y.K D D D D D D D D D D , , a.a.a.a.a.a.a.a.a.a.a.a.",
"a.a.a.a.a.a.a.a.a.a.a.a., , D D D D D D D D D D e.p.p.p.p.p.p.p.p.p.p.p.p.p.p.e.D D D D D D D D D D , , a.a.a.a.a.a.a.a.a.a.a.a.",
"a.a.a.a.a.a.a.a.a.a.a.a., , D D D D D D D D D D i.p.p.p.p.p.p.p.p.p.p.p.p.p.p.i.D D D D D D D D D D , , a.a.a.a.a.a.a.a.a.a.a.a.",
"a.a.a.a.a.a.a.a.a.a.a.a., , D D G G G G G J J J J J J J J J J J J J J J J J J J J J J H G G G G D D , , a.a.a.a.a.a.a.a.a.a.a.a.",
"a.a.a.a.a.a.a.a.a.a.a.a., , ~ ~ ~ ~ ~ ~ ~ ~ ~ ~ ~ ~ ~ ~ ~ ~ ~ ~ ~ ~ ~ ~ ~ ~ ~ ~ ~ ~ ~ ~ ~ ~ ~ ~ ~ ~ , , a.a.a.a.a.a.a.a.a.a.a.a.",
"a.a.a.a.a.a.a.a.a.a.a.a., , ~ ~ ~ ~ ~ ~ ~ ~ ~ ~ ~ ~ ~ ~ ~ ~ ~ ~ ~ ~ ~ ~ ~ ~ ~ ~ ~ ~ ~ ~ ~ ~ ~ ~ ~ ~ , , a.a.a.a.a.a.a.a.a.a.a.a.",
"a.a.a.a.a.a.a.a.a.a.a.a., , ~ ~ ~ ~ ~ ~ ~ ~ ~ ~ ~ ~ ~ ~ ~ ~ ~ ~ ~ ~ ~ ~ ~ ~ ~ ~ ~ ~ ~ ~ ~ ~ ~ ~ ~ ~ , , a.a.a.a.a.a.a.a.a.a.a.a.",
"a.a.a.a.a.a.a.a.a.a.a.a., , L ~ ~ ~ ~ ~ ~ ~ ~ ~ ~ ~ ~ ~ ~ ~ ~ ~ ~ ~ ~ ~ ~ ~ ~ ~ ~ ~ ~ ~ ~ ~ ~ ~ ~ L , , a.a.a.a.a.a.a.a.a.a.a.a.",
"a.a.a.a.a.a.a.a.a.a.a.a.; , e ~ ~ ~ ~ ~ ~ ~ ~ ~ ~ ~ ~ ~ ~ ~ ~ ~ ~ ~ ~ ~ ~ ~ ~ ~ ~ ~ ~ ~ ~ ~ ~ ~ ~ e , ; a.a.a.a.a.a.a.a.a.a.a.a.",
"a.a.a.a.a.a.a.a.a.a.a.a.a., , , ; , 1.w.w.w.w.w.w.w.w.w.w.w.w.w.w.q.w.w.w.w.w.w.w.w.w.w.w.w.) , , , , ; a.a.a.a.a.a.a.a.a.a.a.a.",
"a.a.a.a.a.a.a.a.a.a.a.; , , , , , ` w.w.w.w.w.w.w.w.w.w.w.w.w.w.w.w.w.w.w.w.w.w.w.w.w.w.w.w.1., , , , , ; a.a.a.a.a.a.a.a.a.a.a.",
"a.a.a.a.a.a.a.a.a.a.; , c ] | , x 6.w.w.w.;.v v ;.w.w.w.w.w.w.w.w.w.w.w.w.w.w.;.v v *.w.w.w.w.' , | ] c , ; a.a.a.a.a.a.a.a.a.a.",
"a.a.a.a.a.a.a.a.a.a., r #.&.&.6 ;.w.w.w.w.v , , v w.w.w.w.w.w.w.w.w.w.w.w.w.w.v , , v w.w.w.w.w.x &.&.#.r , a.a.a.a.a.a.a.a.a.a.",
"a.a.a.a.a.a.a.a.a.; , | &.&.&.6.w.w.w.w.w., , , , w.w.w.w.w.w.w.w.w.w.w.w.w.w., , , , w.w.w.w.w.6.&.&.&.| , , a.a.a.a.a.a.a.a.a.",
"a.a.a.a.a.a.a.a.a., , &.&.&.&.w.w.w.w.w.w., , , , w.w.w.w.w.w.w.w.w.w.w.w.w.w., , , , w.w.w.w.w.w.&.&.&.&., , a.a.a.a.a.a.a.a.a.",
"a.a.a.a.a.a.a.a.a., , &.&.&.&.w.w.w.w.w.w.x , , x w.w.w.w.w.<.;.;.:.q.w.w.w.w.x , , x w.w.w.w.w.q.&.&.&.&., , a.a.a.a.a.a.a.a.a.",
"a.a.a.a.a.a.a.a.a.; , | &.&.&.q.w.w.w.w.w.;.4 4 ;.w.w.w.w.4.&.&.&.&.<.w.w.w.w.;.4 , *.w.w.w.w.w.6.&.&.&.| , ; a.a.a.a.a.a.a.a.a.",
"a.a.a.a.a.a.a.a.a.a., r #.&.&.6.w.w.w.w.w.w.w.w.w.w.w.1.| &.&.&.&.&.&.| ;.w.w.w.w.w.w.w.w.w.w.w.7.&.&.#.r , a.a.a.a.a.a.a.a.a.a.",
"a.a.a.a.a.a.a.a.a.a.; , 5 [ &.4.w.w.w.w.w.w.w.w.w.w.@., , _ &.&.&.&.] , , @.w.w.w.w.w.w.w.w.w.w.5.&.| 5 , ; a.a.a.a.a.a.a.a.a.a.",
"a.a.a.a.a.a.a.a.a.a.a., , > , ' w.w.w.w.w.w.w.w.q.&., , , , , , , , , , , , +.w.w.w.w.w.w.w.w.w.' , , , , a.a.a.a.a.a.a.a.a.a.a.",
"a.a.a.a.a.a.a.a.a.a.a.a.a.; , v w.w.w.w.w.w.w.w.w.6 , , , , , , , , , , , , 4 w.w.w.w.w.w.w.w.w.' , , a.a.a.a.a.a.a.a.a.a.a.a.a.",
"a.a.a.a.a.a.a.a.a.a.a.a.a.a., x w.w.w.w.w.w.w.w.w.4 , , , , , , , , , , , , 4 w.w.w.w.w.w.w.w.w.6 , a.a.a.a.a.a.a.a.a.a.a.a.a.a.",
"a.a.a.a.a.a.a.a.a.a.a.a.a., , , ;.w.w.w.w.w.w.w.w.1.] v , , , , , , , , v ' 1.w.w.w.w.w.w.w.w.;., , , a.a.a.a.a.a.a.a.a.a.a.a.a.",
"a.a.a.a.a.a.a.a.a.a.a.a., , 9 P I 2.w.w.w.w.w.w.w.w.w.w.w.w.w.q.w.w.w.w.w.w.w.w.w.w.w.w.w.w.2.W P 9 , , a.a.a.a.a.a.a.a.a.a.a.a.",
"a.a.a.a.a.a.a.a.a.a.a.; , 9 ~ ~ ~ ( B B B B B B } X.X.X.X.X.X.X.X.X.X.X.X.X.X.} B B B B B B ( ~ ~ ~ 9 , ; a.a.a.a.a.a.a.a.a.a.a.",
"a.a.a.a.a.a.a.a.a.a.a., 1 Q ~ ~ ~ ~ / z z z z z n ! ~ ~ ~ ~ ~ ~ ~ ~ ~ ~ ~ ~ ! n z z z z z / ~ ~ ~ ~ Q 1 , a.a.a.a.a.a.a.a.a.a.a.",
"a.a.a.a.a.a.a.a.a.a., , P ~ ~ ~ X.X.^ U n z z z z n Y ~ ~ ~ ~ ~ ~ ~ ~ ~ ~ Y n z z z z n U ^ X.X.~ ~ ~ P , , a.a.a.a.a.a.a.a.a.a.",
"a.a.a.a.a.a.a.a.a.a., , Q ~ o.9.w.w.w.w.,.N z z z z z M E ! ~ ~ ~ ~ ! E M z z z z z N >.w.w.w.w.9.o.~ Q , , a.a.a.a.a.a.a.a.a.a.",
"a.a.a.a.a.a.a.a.a.a., , ~ o.w.w.w.w.w.w.w.2.z z z z z z z z z z z z z z z z z z z z 2.w.w.w.w.w.w.w.o.~ , , a.a.a.a.a.a.a.a.a.a.",
"a.a.a.a.a.a.a.a.a.a.: , Q 3.w.w.w.w.w.w.w.w.z z z z z z z z z z z z z z z z z z z z w.w.w.w.w.w.w.w.3.Q , ; a.a.a.a.a.a.a.a.a.a.",
"a.a.a.a.a.a.a.a.a.a.: : { w.w.w.w.w.w.w.w.w.z z z z z z l g f d d d g l z z z z z z q.w.w.w.w.w.w.w.w.{ , , a.a.a.a.a.a.a.a.a.a.",
"a.a.a.a.a.a.a.a.a.a.a.; ] w.w.w.w.w.w.w.w.,.z z z z z g p p p p p p p p g z z z z z ,.q.w.w.w.w.w.w.w.' , a.a.a.a.a.a.a.a.a.a.a.",
"a.a.a.a.a.a.a.a.a.a.a., b w.w.w.w.w.w.w.w...z z z z j p p p p p p p p p p h z z z z ..w.w.w.w.w.w.w.w.b , a.a.a.a.a.a.a.a.a.a.a.",
"a.a.a.a.a.a.a.a.a.a.a., x w.w.w.w.w.w.w.8.m z z z l p p p p p p p p p p p p l z z z m 8.w.w.w.w.w.w.w.x , a.a.a.a.a.a.a.a.a.a.a.",
"a.a.a.a.a.a.a.a.a.a.a., , 1.w.w.w.w.w.w.V z z z z s p p p p p p p p p p p p d z z z z V w.w.w.w.w.w.1., , a.a.a.a.a.a.a.a.a.a.a.",
"a.a.a.a.a.a.a.a.a.a.a.; , v 6.w.w.w.w.=.z z z z j p p i u y y y y y y u i p p j z z z z =.w.w.w.w.6.v , ; a.a.a.a.a.a.a.a.a.a.a.",
"a.a.a.a.a.a.a.a.a.a.a.a., , v @.$.%. .z z z z z f p t O , , , , ; , , , O t p f z z z z z  .%.$.@.v , , a.a.a.a.a.a.a.a.a.a.a.a.",
"a.a.a.a.a.a.a.a.a.a.a.a.a.; , ,                         = , a.a.a.a., *                         , , ; a.a.a.a.a.a.a.a.a.a.a.a.a.",
"a.a.a.a.a.a.a.a.a.a.a.a.a.a., ,                         * ; a.a.a.a., *                         , , a.a.a.a.a.a.a.a.a.a.a.a.a.a.",
"a.a.a.a.a.a.a.a.a.a.a.a.a.a., , $                     + - ; a.a.a.a., , o                     % , , a.a.a.a.a.a.a.a.a.a.a.a.a.a.",
"a.a.a.a.a.a.a.a.a.a.a.a.a.a.a., , = $ + X       . # % , , , a.a.a.a.; , , * # o         X $ = , , a.a.a.a.a.a.a.a.a.a.a.a.a.a.a.",
"a.a.a.a.a.a.a.a.a.a.a.a.a.a.a.a., , , , , , , , , , , , a.a.a.a.a.a.a.a., , , , , , , , , , , , a.a.a.a.a.a.a.a.a.a.a.a.a.a.a.a.",
"a.a.a.a.a.a.a.a.a.a.a.a.a.a.a.a.a.a.; , , , , , , , a.a.a.a.a.a.a.a.a.a.a.a., > , , , , , , a.a.a.a.a.a.a.a.a.a.a.a.a.a.a.a.a.a.",
"a.a.a.a.a.a.a.a.a.a.a.a.a.a.a.a.a.a.a.a.a.a.a.a.a.a.a.a.a.a.a.a.a.a.a.a.a.a.a.a.a.a.a.a.a.a.a.a.a.a.a.a.a.a.a.a.a.a.a.a.a.a.a.a.",
"a.a.a.a.a.a.a.a.a.a.a.a.a.a.a.a.a.a.a.a.a.a.a.a.a.a.a.a.a.a.a.a.a.a.a.a.a.a.a.a.a.a.a.a.a.a.a.a.a.a.a.a.a.a.a.a.a.a.a.a.a.a.a.a.",
"a.a.a.a.a.a.a.a.a.a.a.a.a.a.a.a.a.a.a.a.a.a.a.a.a.a.a.a.a.a.a.a.a.a.a.a.a.a.a.a.a.a.a.a.a.a.a.a.a.a.a.a.a.a.a.a.a.a.a.a.a.a.a.a.",
"a.a.a.a.a.a.a.a.a.a.a.a.a.a.a.a.a.a.a.a.a.a.a.a.a.a.a.a.a.a.a.a.a.a.a.a.a.a.a.a.a.a.a.a.a.a.a.a.a.a.a.a.a.a.a.a.a.a.a.a.a.a.a.a.",
"a.a.a.a.a.a.a.a.a.a.a.a.a.a.a.a.a.a.a.a.a.a.a.a.a.a.a.a.a.a.a.a.a.a.a.a.a.a.a.a.a.a.a.a.a.a.a.a.a.a.a.a.a.a.a.a.a.a.a.a.a.a.a.a."
};
