/* XPM */
static char *exit[] = {
/* columns rows colors chars-per-pixel */
"54 54 36 1 ",
"  c None",
". c #6F3E43",
"X c #6F3E44",
"o c #703D43",
"O c #7E4A47",
"+ c #7F4748",
"@ c #844C49",
"# c #89504B",
"$ c #8C564B",
"% c #8F514D",
"& c #8E544C",
"* c #92594D",
"= c #975E4E",
"- c #985A4F",
"; c #995950",
": c #9F5A52",
"> c #9B624F",
", c #A36153",
"< c #A36252",
"1 c #A16451",
"2 c #A76554",
"3 c #AE6756",
"4 c #AA6F53",
"5 c #AC6B55",
"6 c #B26E57",
"7 c #B67457",
"8 c #B77158",
"9 c #BC745A",
"0 c #BF7E59",
"q c #C07B5A",
"w c #C4815A",
"e c #C8875A",
"r c #CB815E",
"t c #D98F61",
"y c #E69E63",
"u c #F4AC66",
/* pixels */
"                                                      ",
"                                                      ",
"                                                      ",
"                                                      ",
"                                                      ",
"                                                      ",
"                                                      ",
"                                                      ",
"                                                      ",
"    XXXXXXXXXX                          XXXXXXXXXX    ",
"   XXXXXXXXXXXX                        XXXXXXXXXXXX   ",
"  oXXXXXXXXXXXXo                      oXXXXXXXXXXXXo  ",
"XXXXXXXXXXXXXXXXX                    XXXXXXXXXXXXXXXXX",
"XXXXXXXXXXXXXXXXXX                  XXXXXXXXXXXXXXXXXX",
"XXXXXO$>>>>$OXXXXXo                oXXXXXO$>>>>$OXXXXX",
"XXXXX$4eeee4$XXXXXXXXXXXXXXXXXXXXXXXXXXXX$4eeee4$XXXXX",
"XXXXX>euuuue>XooXXXXooooXoXXXXXXoooXXXXXX>euuuue>XXXXX",
"XXXXX>euuuue>XooXXXXooooXXXXXXXXoooXXXXXX>euuuue>XXXXX",
"XXXXX>euuuue>XXXXXXXooooXXXXXXXXooooXXXXX>euuuue>XXXXX",
"XXXXX>euuuue>XXXXXXXooooXXXXXXXXooooXXXXX>euuuue>XXXXX",
"XXXXo-qyyyyw,+@$$$$$$$&&$$$$$$$$$$$$$$#@+,wyyyyq*XXXXX",
"XXXXo*8ttttq,$;,4444444444444444444444,;$,qtttt7*XXXXX",
"XXXXX$4eeee93;39eeeeqqqeqqeeeeeeeeeeee93;39eeee4$XXXXX",
"XXXXX$4eeee93:39eeeeqqqeqqeeeeeeeeeeee93;39eeee4$XXXXX",
"XXXXX$4eeee93:39eerrqqqqqqrrrqqqqqqqrr93:3qrqqq4$XoXXX",
"XXXXX$4eeee93:39errrqqqeeqrrrreeqqqqrr96:39rqqq4$XXXXX",
"XXXXX$4eqqq93:39eerrqeeeeeereeeeqqeerrq6:39reeq4$XXXXX",
"XXXXX$4eqqq93:39eerrrreeeeereeeeeeeerrq3:39reeq4$XXXXX",
"ooooo$4qeee93;39eeeeeeeeeeeeerrqeeeeee93:39eeee4$XXXXX",
"Xoooo$4eeeq9,$;,4444444444444444444444,;&,9eeee4$XXXXX",
"XXooo$4eeee6;@@#$$&&$$$$$$$$&&&&$$$$$$#@+-6eeee4$XXXXX",
"XXooo$4eeee4$XoooooooooooooooooooXXXXXXXX$4eeee4$XXXXX",
"XXXXo$4qeer4$oooXXXXXXXXXXXXXXXXXXXXXXXXX$4eeee4$XXXXX",
"XXXXo$4qeer4$oooXXXXXXXXXXXXXXXXXXXXXXXXX$4eeeq4$XXXXX",
"XXXXo$4eeee4$oooXXooXXXXXXXXoooXXXXXXXXXX$4eqqq4$XXXXX",
"XXXXo$4eeee4$oooXoooXXXXXXXXoooXXXXXXoXXX$4eqqq4$XXXXX",
"XXXXX$4eeee4$XXXooooooooXXXXXXXXXXXXXXXXo$4eqee4$XXXXX",
"XXXXX$4eeee4$XXXooooooooXXXXXXXXXXXXXXXXo$4eeer4$XXXXX",
"XXXXX$4eeee6-+@$$$$$&&&&$$$$$$$$$$$$$$#@@;3errr4$XXXXX",
"XXXXX$4eeee8,$;,4444444444444444444444,;&,8rrrr4$XXXXX",
"XXooo$4eqqr93:39reeeeeqqeeeerrqqqqqqee93:39eeee4$XXXXX",
"XXooo$4eqqr93:69rreeeeqqeeeerrrqqqqeee93:39eeee4$XXXXX",
"XXooo&4eqqq93:39rrrreeeqeeeerrqqqqeeee93:39eqee4$XXXXX",
"XXooo&4eqqq93:39rrrreeeqeeerrrqqrqeeee93:39eqqq4$XXXXX",
"XXXXo$4eeee93:39qqqeeeeeqqqqeeeqrrrree93:39eqqe4$XXXXX",
"XXXXo$4qeee93:39qqqeeeerqqqqeeeqrrrree93:39eqqr4$XXXXX",
"XXXXo$4qeee93;39qqeeeerrrrqreeeeeerree93:39errr4$XXXXX",
"XXXXo$4eeee8,$;,4444446664444444444444,;&,9rrrr4$XXXXX",
"XXXXX$4eqqq3;@@$$$$$$$$$$$$$$$$$$$$$$$$@@;3eeeq4$ooooo",
"XXXXX$4eqqe4&oooooXXXXXXXXXXXXXXooooXXXXo$4eeeq4$oooXo",
"XXXXX$4eqqe4&ooooXXXXXXXXXXXXXXXooooXXXXo$4qeee4$oooXX",
"XXXXX$4eeee4&oooooXXXXXXXXXXXXXXooooXXXXo$4qeee4$oooXo",
"ooooo$4qeee4$oooXXXXXXXXXXXXXXXXXXXXXXXXX$4eeee4$XXXXX",
"ooooo$4eeee4$oooXXXXXXXXXXXXXXXXXXXXXXXXX$4eeee4$XXXXX"
};
