/* XPM */
static char *floor[] = {
/* columns rows colors chars-per-pixel */
"64 64 29 1 ",
"  c #758C8E",
". c #758D8F",
"X c #768D8F",
"o c #768E90",
"O c #778E90",
"+ c #778E91",
"@ c #778F91",
"# c #788F91",
"$ c #788F92",
"% c #789092",
"& c #799093",
"* c #799193",
"= c #7A9194",
"- c #7A9294",
"; c #7A9295",
": c #7B9295",
"> c #7B9396",
", c #7C9396",
"< c #7C9497",
"1 c #7C9597",
"2 c #7D9598",
"3 c #7D9698",
"4 c #7E9799",
"5 c #7F989B",
"6 c #80999C",
"7 c #819A9D",
"8 c #829B9E",
"9 c #839C9F",
"0 c #849EA1",
/* pixels */
"   100000007o  o<6<6,<<6,6,<<6,6,<<6,6,<<$   ,<<6<6,<<6<6,<,    ",
" o70000000007o  <<<<6<<,<<6<<,<<6<<,<<6<4   $<,6,<<<,6,<<<,6,   ",
" 7000000000007  $4<<,6,6<<,<<6<<,6,6<<,<,  $<<6<<,6,<<<,6<6<,O  ",
"700000000000001  ,44<<<<6,6<<,6,<<<<6,6<   $4<,<<6<<,6<6,<,<<>  ",
"000000000000000% $<,6<6<,<<6,<<6<,<,,6,$   $4<<<6,<<6,<<<64<4, 7",
"0000000000000007  $4,<,<6<<,6<<,<6<6<<$+    <<44<<,6<<,6<<<<<$>0",
"0000000000000000, X$<<6<,6,6,6,66,,<6$+     $64<6<6<6<6<<6<4> 60",
"0000000000000000,   $6<<<<<<<<<<<<,6$  ,64$  ,,4,<,<,<,<<,<,  40",
"0000000000000000,    $<4<,<,<,<,6<6$  100006  146<6<6<6<<6,   $0",
"0000000000000000o     $<<6<6<6<6,<$  60000008  1,<,<,<,<<,+    6",
"700000000000000>       o<6<<6,<<6$XX6900000006  ,<6,<<6,,+      ",
"$0000000000000>          ,,6<<4,$  ,00000000005  ,<<,6<,O       ",
" >00000000007>            $,,<,    000000000000,  $4,6$X  $$,>$ ",
"  >000000009o                     $0000000000001   O+XX $66<<4<,",
",  40000007$   ><4,                600000000000       +$<6<6<<<4",
"41  490004   $11<4,,               $00000000001     XX$<,,<<64<<",
"14<$ Oo$    $<<6,<<6$               >00000000,      +>,<<6,<<<<6",
"4,4<O      ><4<<6<<,<+               >0000091       $,<4<,6<6,<,",
"<<<<>O    $4<<46,6,66,        X$$$$   >00006       $<6<<<<<<,6<6",
"<44<<<O   ,,4<<<<<<<,<$    XX,<6<4<>   $66%      +$4<,6,6,6,<<<,",
"<,<,<<<+  %4,6,6<44<,,$X   $,6,644<<,            $<6,<<6,6,6<<<6",
"<6<6<4<,  $,<<<<<<<<<6,   $<<<<<<<,64,o         $6<,6<<,<<<<6,<,",
"6,<<<<<4,  $<6,<6<<4<,  +,6<<<,<6<<<4<,$       $,6,6,6,6<6,<,6<6",
"<<<6<6<<,$  ,,6<<<4,,   ,<,<,66<,<,6,41,       ,<<<<<<<<<,6<<<<,",
"6<6,<6,6,,X X,<<66<$   ,<<<6,<<<<<6,<,<<<$     <,6,6,6,6<6,<<<<6",
",<<<<,<<<$    ,4,$+X +,4<4<,6<6,,6<<<6,6<,    X6<<<<<<<<<,6<6,<,",
"<,6,<6<<6$     $X    <<<,6<6,<,6<,<,6<<<,<,    <<6,<<6,<<<<<,6<6",
"<6<<<,6,,$          ,,6,<<<,6<<<<6<6,<,66<<$   ,<,6<<,6<6,6,<<<,",
"6,<<6,<6,          $<6<6<6,<<6,<6<6<<,<<6,<,o  $<<6,,<<<,6,6<<<6",
"<<,6<<<,X         +,,,<,<,6<<,6<,<,<<6,6<<<6,   ,<<<6<6,<<<<6,<,",
"6<6<6<6+          $,46,6<<<<<<<<<<6,6<<<6<<<<$   ,6,,<,6<6,<,6<6",
",<,<,<+           $6<<<<6,6,6,6,,6<<,<,6<<44<$    ,<6<<<<,6<<<<,",
",64,<$             ,6<6<<,<,<,<,<<6,<,<<6,<,<$     ,4<<<4<<<<<<6",
"<<<4,              ,,<,<<6<6<6<6,6<<<6,6<<<66$      ,44<4<6<6<<<",
"<6,$        $      $<<<46,<<6,<<<,<,6<<<6,<4,        ,,4<<<<,6<6",
"<,$       ,<4<,$    $6<4<<,6<<,6<6<6,<,6<<4,X         ,1<46<<<<,",
",$       $6,6,<,,$   ,,<6<6,<<6<6<6<<,<<4<<$           >6<6<<<<6",
"$       $4<<<<<64<$   ,4,<<<,6,<,<,<<6,6<4$+   %666,    $<,,6,6$",
"       $<,6,6,6<<<,%  $,<,6,<<<,<<6,6<<<1%    >700007    X$6<,+X",
"      X<<6<<<<,<64<4,  $<6<<,6<6,6<<,<,6>    >00000007      +   ",
"      $46,<,<<6,,<<6,,  $6,6,,<<<,<<4<<$X   >0000000006+        ",
"     $<<<<<6,6<<6<<,<<$ X$,<6<,6<6,6<,$X   ,000000000006        ",
"     ,6,6,6<<,<,,6,6<4$   $,,<6<,6<<,+    >00000000000006+      ",
"    $6<<<<,<<6<6<<<<<,,  XX$,<,<<<<,     $0000000000000007      ",
"    $4<<6,<,6<6<6<6<4<$      $6<<,       70000000000000000$     ",
"    $,,6<<<6,<,<,<,<<,                  >000000000000000000     ",
"     ,<<6,6<<<6,<<<4<$                  1000000000000000000     ",
"      ,6<<,<,6<<,6,6%                   $000000000000000006     ",
"       >,4<<44<<<6,,                    O50000000000000000$     ",
"        ><4<<<<4<4,                      O700000000000000>   o$ ",
">        o,4<<<4<<X         XX             7000000000000,   4000",
"0,         ,<6<<,X        $,<$$            O000000000004   40000",
"004         $$,,         ,6<<<6,OO          o0000000004   400000",
"0004        +          X<<<<<6<<<o           O6000000,   4000000",
"0000,                 $,<<44<<<,4<$           O70000>   <0000000",
"00007                $<,4<<<<6<6<<4$            $<,o    50000000",
"00006               $<<66<6<6<6<<5<<$X                  70000000",
"00001              $6<<,,<,<,<,<<<6<6$                  <0000000",
"0004              X,,6,6<<6,<<6,<<<<,,+X          OO  OO 5000000",
"004               ,,<<<<,6<<,6<<6<6<<6<+          $<<<$O  400000",
"0>               $666<6<<,<<6,<,6<6<6<6$O      O ,<<<4<<   40000",
">               $,<<,<,<<6,6<<<6,<,<,<,6$      O$<<4<4<4<   >800",
"     $476,$     ,66<<<6,6<<<6,6<<<6,6<<<<O    O$<6<6<<4,4>o   % ",
"    >700007    +<<,<,6<<,<,6<<,<,6<<,<,6<$    ,<<<<<4<<4141     "
};
